<svg width="14" height="14" viewBox="0 0 14 14" fill="none" xmlns="http://www.w3.org/2000/svg">
<g clip-path="url(#clip0_601_758)">
<g filter="url(#filter0_d_601_758)">
<path d="M7 12.25C9.8995 12.25 12.25 9.8995 12.25 7C12.25 4.10051 9.8995 1.75 7 1.75C4.10051 1.75 1.75 4.10051 1.75 7C1.75 9.8995 4.10051 12.25 7 12.25Z" fill="black"/>
</g>
<path d="M7 12.25C9.8995 12.25 12.25 9.8995 12.25 7C12.25 4.10051 9.8995 1.75 7 1.75C4.10051 1.75 1.75 4.10051 1.75 7C1.75 9.8995 4.10051 12.25 7 12.25Z" fill="#62E0D9"/>
<path fill-rule="evenodd" clip-rule="evenodd" d="M7.50889 5.25L7.19127 5.55625L8.46177 6.78125H4.66602V7.21875H8.46177L7.19214 8.44375L7.50977 8.75L9.32452 7L7.50889 5.25Z" fill="#1B2330"/>
</g>
<defs>
<filter id="filter0_d_601_758" x="-0.25" y="-0.25" width="14.5" height="14.5" filterUnits="userSpaceOnUse" color-interpolation-filters="sRGB">
<feFlood flood-opacity="0" result="BackgroundImageFix"/>
<feColorMatrix in="SourceAlpha" type="matrix" values="0 0 0 0 0 0 0 0 0 0 0 0 0 0 0 0 0 0 127 0" result="hardAlpha"/>
<feOffset/>
<feGaussianBlur stdDeviation="1"/>
<feColorMatrix type="matrix" values="0 0 0 0 0.384314 0 0 0 0 0.878431 0 0 0 0 0.85098 0 0 0 0.811141 0"/>
<feBlend mode="normal" in2="BackgroundImageFix" result="effect1_dropShadow_601_758"/>
<feBlend mode="normal" in="SourceGraphic" in2="effect1_dropShadow_601_758" result="shape"/>
</filter>
<clipPath id="clip0_601_758">
<rect width="14" height="14" fill="white"/>
</clipPath>
</defs>
</svg>
