<svg width="66" height="55" viewBox="0 0 66 55" fill="none" xmlns="http://www.w3.org/2000/svg">
<g clip-path="url(#clip0_601_744)">
<g clip-path="url(#clip1_601_744)">
<path fill-rule="evenodd" clip-rule="evenodd" d="M64.1488 40.6744C66.019 40.6744 67.5347 39.2501 67.5347 37.4919V2.48346C67.5347 1.31235 66.5232 0.362254 65.2777 0.362254L64.1495 40.6744H64.1488ZM9.97656 4.64151V35.3753C9.97656 38.3015 12.3541 40.6744 15.2873 40.6744H64.1488C63.7307 40.6749 63.3167 40.5931 62.9304 40.4336C62.544 40.2741 62.1928 40.04 61.8969 39.7447C61.601 39.4495 61.3662 39.0988 61.2058 38.7128C61.0455 38.3268 60.9627 37.9129 60.9623 37.4949V-1.71751C60.9615 -2.28023 60.7373 -2.81961 60.339 -3.21708C59.9406 -3.61455 59.4008 -3.8376 58.8381 -3.83719H46.0908L41.8423 2.52184H12.1008C11.5381 2.52143 10.9983 2.74447 10.5999 3.14194C10.2016 3.53942 9.97738 4.07879 9.97656 4.64151V4.64151Z" stroke="#62E0D9" stroke-width="1.405" stroke-linecap="round" stroke-linejoin="round"/>
<path fill-rule="evenodd" clip-rule="evenodd" d="M30.1453 16.5468V19.0034C30.1453 19.8177 30.7907 20.4769 31.5881 20.4769H33.9902L30.1453 16.5468ZM35.9126 20.4769V20.3088C35.9126 19.7877 35.71 19.2881 35.3493 18.919L31.6702 15.157C31.4933 14.9753 31.2819 14.8308 31.0484 14.7319C30.8148 14.6331 30.5639 14.5819 30.3103 14.5814H19.5738C18.5109 14.5814 17.6514 15.4617 17.6514 16.5468V37.1833C17.6514 38.2685 18.5117 39.148 19.5738 39.148H33.9902C35.0516 39.148 35.9126 38.2685 35.9126 37.1833V30.3048" fill="#62E0D9"/>
<path fill-rule="evenodd" clip-rule="evenodd" d="M24.3779 33.2532V36.2002H27.2612L36.3922 26.8651L33.509 23.9173L24.3779 33.2525V33.2532ZM36.3922 26.8651L37.4114 25.8229C37.6824 25.5435 37.834 25.1695 37.834 24.7803C37.834 24.3911 37.6824 24.0171 37.4114 23.7377L36.5672 22.8751C36.4348 22.7385 36.2764 22.63 36.1013 22.5558C35.9261 22.4816 35.7379 22.4434 35.5477 22.4434C35.3575 22.4434 35.1692 22.4816 34.9941 22.5558C34.8189 22.63 34.6605 22.7385 34.5281 22.8751L33.509 23.9173L36.3922 26.8651Z" stroke="white" stroke-width="0.803" stroke-linejoin="round"/>
<path d="M21.4951 30.3047H27.2617M21.4959 24.4085H31.1066H21.4959ZM21.4951 27.3562H30.1457H21.4951Z" stroke="white" stroke-width="0.803" stroke-linecap="round" stroke-linejoin="round"/>
<path fill-rule="evenodd" clip-rule="evenodd" d="M23.3046 41.006C23.3046 42.5194 22.0691 43.7473 20.5449 43.7473H1.22456C-0.298807 43.7473 -1.53516 42.5194 -1.53516 41.006V27.2995C-1.53516 25.7861 -0.299575 24.5582 1.22456 24.5582H20.5449C22.0683 24.5582 23.3046 25.7861 23.3046 27.2995V41.006V41.006ZM6.74477 29.5849C6.74254 30.1927 6.49898 30.7748 6.06767 31.2031C5.63635 31.6314 5.05259 31.8709 4.44475 31.8688C3.83691 31.8709 3.25315 31.6314 2.82183 31.2031C2.39052 30.7748 2.14696 30.1927 2.14473 29.5849C2.14573 29.2839 2.20602 28.986 2.32216 28.7083C2.43829 28.4305 2.60799 28.1784 2.82156 27.9662C3.03514 27.7541 3.28841 27.5861 3.56692 27.4718C3.84543 27.3575 4.14371 27.2992 4.44475 27.3002C4.74579 27.2992 5.04407 27.3575 5.32258 27.4718C5.60109 27.5861 5.85436 27.7541 6.06794 27.9662C6.28151 28.1784 6.45121 28.4305 6.56735 28.7083C6.68348 28.986 6.74377 29.2839 6.74477 29.5849Z" fill="#62E0D9"/>
<path d="M19.0215 40.4104L13.6118 34.6884L11.3578 37.0728L8.20207 33.7352L1.89062 40.4104" stroke="white" stroke-width="0.65" stroke-linecap="round" stroke-linejoin="round"/>
</g>
</g>
<defs>
<clipPath id="clip0_601_744">
<rect width="66" height="54.4884" fill="white"/>
</clipPath>
<clipPath id="clip1_601_744">
<rect width="69.8372" height="49.1163" fill="white" transform="translate(-1.53516 -4.60464)"/>
</clipPath>
</defs>
</svg>
