<svg width="62" height="52" viewBox="0 0 62 52" fill="none" xmlns="http://www.w3.org/2000/svg">
<path fill-rule="evenodd" clip-rule="evenodd" d="M24.4378 8.17384V9.63517V8.17384V8.17384ZM24.4378 37.4083V38.8703V37.4083ZM39.0799 24.2527H37.6157H39.0799ZM9.79574 24.2527H8.33081H9.79502H9.79574ZM23.7054 30.0995C23.143 30.0995 22.5807 29.8861 22.1532 29.4579L12.7234 20.0447L15.8292 16.9447L23.7054 24.8071L43.3832 5.1618L46.4904 8.2618L25.259 29.4571C25.055 29.6611 24.8127 29.8227 24.5461 29.9328C24.2795 30.0429 23.9938 30.0993 23.7054 30.0988V30.0995ZM40.3978 8.17096C36.251 3.67956 30.3077 0.865051 23.7046 0.865051C11.1713 0.865051 1.00977 11.0093 1.00977 23.5217C1.00977 36.0342 11.1713 46.1791 23.7054 46.1791C36.2395 46.1791 46.401 36.0342 46.401 23.5217C46.401 19.1832 45.1797 15.1301 43.0631 11.6862L40.3978 8.17096V8.17096ZM37.2726 11.258C35.5569 9.3634 33.4629 7.84981 31.1258 6.81501C28.7888 5.78021 26.2606 5.24721 23.7046 5.25047C13.5958 5.25047 5.40167 13.4301 5.40167 23.5217C5.40167 33.614 13.5958 41.7937 23.7046 41.7937C33.8135 41.7937 42.0076 33.614 42.0076 23.5217C42.0076 20.4008 41.224 17.4645 39.8434 14.8951L37.2726 11.258V11.258Z" stroke="#62E0D9" stroke-width="1.3" stroke-linecap="round" stroke-linejoin="round"/>
<path fill-rule="evenodd" clip-rule="evenodd" d="M39.9174 29.1861C39.9174 30.974 38.4647 32.4231 36.6746 32.4231C35.8155 32.4236 34.9913 32.0829 34.3833 31.4759C33.7754 30.8689 33.4334 30.0452 33.4326 29.1861C33.4326 27.3982 34.8853 25.9491 36.6746 25.9491C37.1001 25.9487 37.5215 26.0321 37.9147 26.1946C38.3079 26.3571 38.6653 26.5954 38.9664 26.896C39.2675 27.1966 39.5065 27.5535 39.6697 27.9465C39.8328 28.3394 39.917 28.7606 39.9174 29.1861V29.1861Z" stroke="#62E0D9" stroke-width="1.3" stroke-linejoin="round"/>
<path fill-rule="evenodd" clip-rule="evenodd" d="M36.674 32.4231C35.3056 32.4231 34.07 32.8434 33.1854 33.255C32.7722 33.4513 32.4235 33.7612 32.18 34.1484C31.9365 34.5356 31.8084 34.9842 31.8106 35.4416V40.5148C31.8111 40.9444 31.9822 41.3562 32.2863 41.6596C32.5903 41.9631 33.0024 42.1335 33.4319 42.1333V48.6065C33.4321 48.8193 33.4742 49.0299 33.5558 49.2263C33.6374 49.4228 33.7569 49.6013 33.9074 49.7516C34.058 49.9019 34.2367 50.021 34.4333 50.1023C34.6299 50.1835 34.8406 50.2252 35.0533 50.225H38.2953C38.5081 50.2252 38.7188 50.1835 38.9154 50.1023C39.112 50.021 39.2907 49.9019 39.4412 49.7516C39.5918 49.6013 39.7113 49.4228 39.7929 49.2263C39.8744 49.0299 39.9165 48.8193 39.9167 48.6065V42.1326C40.346 42.1326 40.7578 41.9622 41.0617 41.6589C41.3655 41.3556 41.5366 40.9441 41.5374 40.5148V35.4409C41.5396 34.9835 41.4114 34.5349 41.1679 34.1477C40.9245 33.7604 40.5757 33.4506 40.1626 33.2543C39.2787 32.8434 38.043 32.4224 36.674 32.4224V32.4231Z" stroke="#62E0D9" stroke-width="1.3" stroke-linecap="round" stroke-linejoin="round"/>
<path fill-rule="evenodd" clip-rule="evenodd" d="M49.6439 29.1861C49.6439 30.974 48.192 32.4231 46.4012 32.4231C45.9758 32.4234 45.5544 32.34 45.1612 32.1775C44.7681 32.015 44.4107 31.7767 44.1097 31.4761C43.8086 31.1755 43.5697 30.8186 43.4066 30.4256C43.2435 30.0327 43.1595 29.6115 43.1592 29.1861C43.1592 27.3982 44.6111 25.9491 46.4012 25.9491C46.8266 25.9487 47.248 26.0321 47.6412 26.1946C48.0343 26.3571 48.3917 26.5954 48.6927 26.896C48.9938 27.1966 49.2327 27.5536 49.3958 27.9465C49.5589 28.3394 49.6429 28.7606 49.6432 29.1861H49.6439Z" stroke="#62E0D9" stroke-width="1.3" stroke-linejoin="round"/>
<path fill-rule="evenodd" clip-rule="evenodd" d="M46.4005 32.4231C45.0322 32.4231 43.7965 32.8434 42.9119 33.255C42.4988 33.4513 42.15 33.7612 41.9066 34.1484C41.6631 34.5356 41.5349 34.9842 41.5371 35.4416V40.5148C41.5373 40.7275 41.5794 40.9382 41.661 41.1346C41.7426 41.3311 41.8621 41.5096 42.0126 41.6598C42.1632 41.8101 42.3419 41.9293 42.5385 42.0105C42.7351 42.0918 42.9458 42.1335 43.1585 42.1333V48.6065C43.1591 49.0361 43.3302 49.4479 43.6342 49.7514C43.9382 50.0548 44.3503 50.2252 44.7799 50.225H48.0219C48.4514 50.2252 48.8634 50.0548 49.1673 49.7513C49.4712 49.4478 49.6422 49.036 49.6425 48.6065V42.1326C49.8553 42.1329 50.066 42.0912 50.2626 42.0101C50.4593 41.9289 50.638 41.8099 50.7886 41.6596C50.9393 41.5094 51.0588 41.331 51.1405 41.1346C51.2222 40.9381 51.2644 40.7275 51.2646 40.5148V35.4409C51.2668 34.9834 51.1385 34.5348 50.8949 34.1475C50.6513 33.7603 50.3024 33.4505 49.8891 33.2543C49.0052 32.8434 47.7689 32.4224 46.4005 32.4224V32.4231Z" stroke="#62E0D9" stroke-width="1.3" stroke-linecap="round" stroke-linejoin="round"/>
<path fill-rule="evenodd" clip-rule="evenodd" d="M59.3698 29.1861C59.3698 30.974 57.9186 32.4231 56.1278 32.4231C55.7023 32.4234 55.281 32.34 54.8878 32.1775C54.4946 32.015 54.1373 31.7767 53.8362 31.4761C53.5352 31.1755 53.2963 30.8186 53.1332 30.4256C52.9701 30.0327 52.886 29.6115 52.8857 29.1861C52.8857 27.3982 54.337 25.9491 56.1278 25.9491C56.5532 25.9487 56.9745 26.0321 57.3677 26.1946C57.7609 26.3571 58.1182 26.5954 58.4193 26.896C58.7203 27.1966 58.9592 27.5536 59.1223 27.9465C59.2854 28.3394 59.3695 28.7606 59.3698 29.1861V29.1861Z" stroke="#62E0D9" stroke-width="1.3" stroke-linejoin="round"/>
<path fill-rule="evenodd" clip-rule="evenodd" d="M56.1281 32.4231C54.7597 32.4231 53.5241 32.8434 52.6395 33.255C52.2263 33.4513 51.8776 33.7612 51.6341 34.1484C51.3906 34.5356 51.2625 34.9842 51.2647 35.4416V40.5148C51.2649 40.7275 51.307 40.9382 51.3885 41.1346C51.4701 41.3311 51.5896 41.5096 51.7402 41.6598C51.8907 41.8101 52.0694 41.9293 52.266 42.0105C52.4626 42.0918 52.6733 42.1335 52.886 42.1333V48.6065C52.8866 49.036 53.0576 49.4476 53.3615 49.7511C53.6654 50.0546 54.0773 50.225 54.5067 50.225H57.7494C58.1789 50.2252 58.591 50.0548 58.8949 49.7513C59.1988 49.4478 59.3697 49.036 59.3701 48.6065V42.1326C59.7996 42.133 60.2117 41.9628 60.5157 41.6594C60.8198 41.356 60.9909 40.9443 60.9915 40.5148V35.4409C60.9937 34.9835 60.8655 34.5349 60.622 34.1477C60.3786 33.7604 60.0298 33.4506 59.6167 33.2543C58.7328 32.8434 57.4964 32.4224 56.1281 32.4224V32.4231Z" stroke="#62E0D9" stroke-width="1.3" stroke-linecap="round" stroke-linejoin="round"/>
</svg>
