<svg width="61" height="58" viewBox="0 0 61 58" fill="none" xmlns="http://www.w3.org/2000/svg">
<g clip-path="url(#clip0_601_708)">
<path fill-rule="evenodd" clip-rule="evenodd" d="M1.81969 39.2943H54.0864V33.4273H1.81969V39.2943ZM38.0059 48.0967H40.9038V50.6903H15.0023V48.0967H17.8994C18.3816 48.0967 18.7703 47.7079 18.7703 47.2272V41.0339H37.135V47.2272C37.135 47.7079 37.5245 48.0967 38.0059 48.0967ZM1.81969 31.6877H54.0864V2.16806H1.81969V31.6869V31.6877ZM0.948052 0.429932C0.466666 0.429932 0.0771484 0.818715 0.0771484 1.29937V40.1645C0.0771484 40.6458 0.466666 41.0346 0.948052 41.0346H17.0285V46.3578H14.1307C13.6493 46.3578 13.2598 46.7488 13.2598 47.228V51.5604C13.2598 52.0396 13.6493 52.4306 14.1307 52.4306H41.7754C42.2561 52.4306 42.6463 52.0396 42.6463 51.5604V47.2272C42.6463 46.748 42.2561 46.3571 41.7754 46.3571H38.8768V41.0339H54.9573C55.4387 41.0339 55.8289 40.6444 55.8289 40.1637V1.30084C55.8289 0.81945 55.4387 0.430667 54.958 0.430667H0.948052V0.429932Z" fill="#62E0D9"/>
<path fill-rule="evenodd" clip-rule="evenodd" d="M26.7606 35.2183C26.2799 35.2183 25.8896 35.6078 25.8896 36.0884C25.8896 36.3194 25.9814 36.5409 26.1447 36.7043C26.3081 36.8676 26.5296 36.9593 26.7606 36.9593C26.9915 36.9593 27.213 36.8676 27.3764 36.7043C27.5397 36.5409 27.6315 36.3194 27.6315 36.0884C27.6315 35.6085 27.2412 35.2183 26.7606 35.2183" fill="#62E0D9"/>
<path d="M58.3222 17.5583H43.1112C42.1119 17.5583 41.3018 18.3685 41.3018 19.3678V54.5501C41.3018 55.5494 42.1119 56.3595 43.1112 56.3595H58.3222C59.3215 56.3595 60.1317 55.5494 60.1317 54.5501V19.3678C60.1317 18.3685 59.3215 17.5583 58.3222 17.5583Z" fill="#181F2B" stroke="#62E0D9" stroke-width="1.641"/>
<path fill-rule="evenodd" clip-rule="evenodd" d="M41.2344 21.8394H60.198V22.5743H41.2344V21.8394ZM41.2344 49.6708H60.198V50.4057H41.2344V49.6708Z" fill="white" stroke="#62E0D9" stroke-width="1.458"/>
<path d="M50.2811 53.483C50.762 53.483 51.152 53.0937 51.152 52.6135C51.152 52.1333 50.762 51.7441 50.2811 51.7441C49.8001 51.7441 49.4102 52.1333 49.4102 52.6135C49.4102 53.0937 49.8001 53.483 50.2811 53.483Z" stroke="#62E0D9" stroke-width="1.01"/>
<path fill-rule="evenodd" clip-rule="evenodd" d="M33.3665 11.7362H33.2217L29.3743 13.2575L25.0183 11.7362L20.9534 13.1135C20.8079 13.1855 20.6631 13.2583 20.6631 13.4758V24.4191C20.6631 24.6373 20.8079 24.7821 21.0261 24.7821H21.1709L25.0183 23.2601L29.3743 24.7814L33.4393 23.4048C33.5848 23.3321 33.7296 23.1873 33.7296 23.0425V12.0985C33.7296 11.881 33.5848 11.7362 33.3665 11.7362ZM29.3743 22.6067L25.0183 21.139V12.8232L29.3743 14.2909V22.6074V22.6067Z" fill="#62E0D9"/>
<path fill-rule="evenodd" clip-rule="evenodd" d="M22.4049 11.7362C21.4348 11.7362 20.6631 12.4101 20.6631 13.2575C20.6631 14.3893 22.4049 16.0848 22.4049 16.0848C22.4049 16.0848 24.1474 14.3886 24.1474 13.2583C24.1474 12.4101 23.3757 11.7362 22.4056 11.7362H22.4049ZM22.4049 13.9102C22.0301 13.9102 21.7354 13.6448 21.7354 13.3068C21.7354 12.9687 22.0293 12.7027 22.4049 12.7027C22.7804 12.7027 23.0752 12.968 23.0752 13.3068C23.0752 13.6448 22.7804 13.9102 22.4049 13.9102Z" fill="white"/>
</g>
<defs>
<clipPath id="clip0_601_708">
<rect width="61" height="57.3253" fill="white"/>
</clipPath>
</defs>
</svg>
