<svg width="50" height="63" viewBox="0 0 50 63" fill="none" xmlns="http://www.w3.org/2000/svg">
<g clip-path="url(#clip0_601_723)">
<path fill-rule="evenodd" clip-rule="evenodd" d="M31.216 25.3764L22.4803 34.293L16.0524 27.7331L12.8389 31.0134L22.4796 40.8535L37.1996 25.831L33.9853 22.5508L31.216 25.3764Z" stroke="#62E0D9" stroke-width="3.064"/>
<path fill-rule="evenodd" clip-rule="evenodd" d="M40.6543 7.04085C36.8386 7.04085 33.045 6.22882 29.5958 4.55045C27.9436 3.75487 26.2536 2.73984 24.7929 1.47534C23.3322 2.73984 21.6422 3.75487 19.9893 4.55045C16.5408 6.22882 12.7479 7.04085 8.93147 7.04085H1.36719V36.055C1.36719 41.1373 3.37933 46.023 6.9579 49.5599C12.2122 54.7422 24.7936 61.4786 24.7936 61.4786C24.7936 61.4786 37.3736 54.7422 42.6279 49.5599C46.2065 46.023 48.2186 41.1365 48.2186 36.055V7.04085H40.6543Z" stroke="#62E0D9" stroke-width="3.064"/>
<path fill-rule="evenodd" clip-rule="evenodd" d="M42.0996 17.5357V36.2987C42.0996 39.6883 40.7404 42.975 38.3718 45.316C35.0775 48.5663 27.5668 53.0145 24.7932 54.6086C22.0175 53.0124 14.5004 48.5591 11.2096 45.3132C8.8425 42.9743 7.48535 39.6883 7.48535 36.2987V13.5292H8.93107C13.7218 13.5292 18.4554 12.4577 22.6218 10.4319C23.3602 10.0766 24.0846 9.69266 24.7932 9.28107C25.4875 9.68493 26.2218 10.0745 26.9818 10.4412C31.1346 12.4613 35.8632 13.5292 40.6539 13.5292H42.0996V17.5357Z" stroke="#62E0D9" stroke-width="3.064"/>
</g>
<defs>
<clipPath id="clip0_601_723">
<rect width="50" height="62.9032" fill="white"/>
</clipPath>
</defs>
</svg>
