<svg width="15" height="12" viewBox="0 0 15 12" fill="none" xmlns="http://www.w3.org/2000/svg">
<path fill-rule="evenodd" clip-rule="evenodd" d="M4.40795 0.0344018C5.20773 0.00625487 5.46273 0 7.5 0C9.53727 0 9.79227 0.00677612 10.5914 0.0344018C11.3905 0.0620276 11.9359 0.1595 12.4132 0.300756C12.913 0.445139 13.3664 0.670836 13.7414 0.962731C14.1232 1.24889 14.4177 1.595 14.6059 1.97759C14.7914 2.34245 14.9182 2.75945 14.955 3.3693C14.9918 3.98175 15 4.1767 15 5.73364C15 7.29111 14.9911 7.48605 14.955 8.09747C14.9189 8.70732 14.7914 9.12431 14.6059 9.48918C14.4177 9.87182 14.1227 10.2185 13.7414 10.5051C13.3664 10.797 12.913 11.0221 12.4132 11.166C11.9359 11.3078 11.3905 11.4047 10.5927 11.4329C9.79227 11.461 9.53727 11.4673 7.5 11.4673C5.46273 11.4673 5.20773 11.4605 4.40795 11.4329C3.61023 11.4053 3.06477 11.3078 2.5875 11.166C2.08699 11.0221 1.63351 10.7966 1.25864 10.5051C0.877077 10.2187 0.581805 9.87223 0.393409 9.4897C0.208636 9.12483 0.0818182 8.70784 0.045 8.09799C0.00818181 7.48553 0 7.29059 0 5.73364C0 4.17618 0.00886363 3.98123 0.045 3.37034C0.0811364 2.75945 0.208636 2.34245 0.393409 1.97759C0.582084 1.59504 0.877581 1.24853 1.25932 0.962209C1.63366 0.670576 2.08669 0.444849 2.58682 0.300756C3.06409 0.1595 3.61023 0.0625488 4.40795 0.0344018ZM10.5307 1.06646C9.73977 1.03883 9.5025 1.0331 7.5 1.0331C5.4975 1.0331 5.26023 1.03883 4.46932 1.06646C3.73773 1.092 3.34091 1.1853 3.07636 1.26401C2.72659 1.36826 2.47636 1.49179 2.21386 1.69247C1.96503 1.87753 1.77353 2.10283 1.65341 2.35184C1.55045 2.55408 1.42841 2.85744 1.395 3.41673C1.35886 4.02137 1.35136 4.20276 1.35136 5.73364C1.35136 7.26453 1.35886 7.44592 1.395 8.05056C1.42841 8.60985 1.55045 8.91321 1.65341 9.11545C1.77341 9.36408 1.965 9.58978 2.21386 9.77482C2.45591 9.96507 2.75114 10.1115 3.07636 10.2033C3.34091 10.282 3.73773 10.3753 4.46932 10.4008C5.26023 10.4285 5.49682 10.4342 7.5 10.4342C9.50318 10.4342 9.73977 10.4285 10.5307 10.4008C11.2623 10.3753 11.6591 10.282 11.9236 10.2033C12.2734 10.099 12.5236 9.9755 12.7861 9.77482C13.035 9.58978 13.2266 9.36408 13.3466 9.11545C13.4495 8.91321 13.5716 8.60985 13.605 8.05056C13.6411 7.44592 13.6486 7.26453 13.6486 5.73364C13.6486 4.20276 13.6411 4.02137 13.605 3.41673C13.5716 2.85744 13.4495 2.55408 13.3466 2.35184C13.2102 2.08444 13.0486 1.89314 12.7861 1.69247C12.544 1.50225 12.2493 1.35586 11.9236 1.26401C11.6591 1.1853 11.2623 1.092 10.5307 1.06646ZM6.54205 7.50117C7.07704 7.67142 7.67276 7.6944 8.22745 7.56618C8.78214 7.43796 9.2614 7.16649 9.58337 6.79814C9.90534 6.4298 10.05 5.98742 9.99276 5.54657C9.93548 5.10572 9.67978 4.69375 9.26932 4.38102C9.00766 4.18112 8.69128 4.02805 8.34295 3.93283C7.99463 3.83762 7.62302 3.80264 7.25488 3.83039C6.88675 3.85815 6.53124 3.94797 6.21396 4.09337C5.89667 4.23877 5.62551 4.43614 5.41998 4.67128C5.21445 4.90641 5.07967 5.17346 5.02535 5.45319C4.97103 5.73293 4.99851 6.01839 5.10582 6.28903C5.21313 6.55967 5.3976 6.80876 5.64595 7.01835C5.89429 7.22795 6.20033 7.39285 6.54205 7.50117ZM4.77409 3.64972C5.13206 3.37606 5.55704 3.15898 6.02475 3.01087C6.49246 2.86277 6.99375 2.78654 7.5 2.78654C8.00625 2.78654 8.50754 2.86277 8.97525 3.01087C9.44296 3.15898 9.86794 3.37606 10.2259 3.64972C10.5839 3.92339 10.8678 4.24827 11.0616 4.60583C11.2553 4.96339 11.355 5.34662 11.355 5.73364C11.355 6.12066 11.2553 6.50389 11.0616 6.86145C10.8678 7.21901 10.5839 7.5439 10.2259 7.81756C9.50295 8.37025 8.52241 8.68075 7.5 8.68075C6.47759 8.68075 5.49705 8.37025 4.77409 7.81756C4.05113 7.26487 3.64498 6.51526 3.64498 5.73364C3.64498 4.95202 4.05113 4.20241 4.77409 3.64972ZM12.21 3.22543C12.2987 3.16146 12.3697 3.08453 12.4188 2.9992C12.468 2.91387 12.4942 2.82187 12.496 2.72866C12.4977 2.63544 12.475 2.5429 12.4292 2.45651C12.3833 2.37012 12.3153 2.29164 12.2291 2.22572C12.1428 2.15979 12.0402 2.10777 11.9272 2.07272C11.8142 2.03767 11.6931 2.02031 11.5712 2.02167C11.4492 2.02303 11.3289 2.04308 11.2173 2.08063C11.1057 2.11818 11.005 2.17247 10.9214 2.24029C10.7586 2.37218 10.6695 2.54736 10.673 2.72866C10.6764 2.90995 10.7722 3.08307 10.9399 3.21128C11.1076 3.33949 11.334 3.41268 11.5712 3.41532C11.8083 3.41796 12.0375 3.34985 12.21 3.22543Z" fill="white"/>
</svg>
