<svg width="176" height="52" viewBox="0 0 176 52" fill="none" xmlns="http://www.w3.org/2000/svg">
<g clip-path="url(#clip0_601_192)">
<path fill-rule="evenodd" clip-rule="evenodd" d="M0 16.372V16.5L29.754 30.264L59.613 16.453V16.418L29.754 2.60804L0 16.372ZM10.727 16.436L29.755 7.63404L48.785 16.436L29.754 25.237L10.727 16.436V16.436ZM29.754 35.61L0 22.052V27.066L29.754 40.656L59.613 27.02V22.005L29.754 35.61ZM29.754 45.78L0 32.22V37.235L29.754 50.826L59.613 37.19V32.176L29.754 45.78ZM169.216 26.22C169.233 24.0366 168.416 21.9289 166.931 20.328C166.233 19.5797 165.392 18.9786 164.458 18.56C163.51 18.1347 162.482 17.9178 161.443 17.924C160.404 17.9178 159.376 18.1347 158.428 18.56C157.494 18.9786 156.653 19.5797 155.955 20.328C154.47 21.9292 153.653 24.0372 153.67 26.221C153.652 28.4049 154.47 30.5129 155.955 32.114C156.653 32.862 157.494 33.4628 158.428 33.881C159.376 34.3067 160.404 34.524 161.443 34.518C162.482 34.524 163.51 34.3067 164.458 33.881C165.392 33.4628 166.233 32.862 166.931 32.114C168.416 30.513 169.234 28.4049 169.216 26.221V26.22ZM176 26.22C176 28.264 175.623 30.157 174.87 31.901C174.146 33.6022 173.088 35.1411 171.76 36.427C170.441 37.7 168.894 38.706 167.12 39.444C165.345 40.183 163.453 40.552 161.443 40.552C159.433 40.552 157.549 40.182 155.79 39.444C154.072 38.7327 152.505 37.701 151.173 36.404C149.847 35.1064 148.791 33.5603 148.063 31.854C147.31 30.11 146.933 28.232 146.933 26.221C146.933 24.241 147.318 22.379 148.087 20.635C148.832 18.926 149.895 17.3742 151.22 16.062C152.547 14.7526 154.115 13.7121 155.837 12.998C157.596 12.259 159.464 11.89 161.443 11.89C163.453 11.89 165.345 12.259 167.12 12.998C168.894 13.736 170.441 14.742 171.76 16.015C173.08 17.287 174.116 18.804 174.87 20.564C175.623 22.324 176 24.209 176 26.221V26.22ZM144.578 39.703C143.997 39.9707 143.389 40.1762 142.764 40.316C142.077 40.4747 141.373 40.5538 140.668 40.552C139.663 40.552 138.697 40.418 137.77 40.152C136.876 39.9023 136.048 39.4595 135.344 38.855C134.654 38.258 134.104 37.48 133.695 36.521C133.287 35.563 133.083 34.408 133.083 33.056V0.717041H140.008V31.877C140.008 33.009 140.236 33.787 140.691 34.211C141.147 34.636 141.688 34.848 142.316 34.848C143.102 34.848 143.856 34.612 144.578 34.141V39.703V39.703ZM130.02 12.55L117.771 44.936C116.861 47.356 115.667 49.1 114.191 50.169C112.715 51.237 110.956 51.772 108.914 51.772C108.568 51.7698 108.222 51.7461 107.878 51.701C107.512 51.6561 107.151 51.5852 106.795 51.489L104.533 45.172C105.062 45.4221 105.615 45.6197 106.183 45.762C106.706 45.8975 107.243 45.9683 107.783 45.973C108.852 45.973 109.825 45.73 110.705 45.243C111.584 44.755 112.259 43.852 112.73 42.532L113.673 39.798L103.167 12.55H110.563L116.829 30.086L122.718 12.55H130.02V12.55ZM101.518 8.44804H83.806V17.217H101.284V23.157H83.806V39.845H76.646V2.17904H101.519V8.44904L101.518 8.44804Z" fill="white"/>
</g>
<defs>
<clipPath id="clip0_601_192">
<rect width="176" height="52" fill="white"/>
</clipPath>
</defs>
</svg>
