<svg width="13" height="9" viewBox="0 0 13 9" fill="none" xmlns="http://www.w3.org/2000/svg">
<path d="M13 0.998877C12.5219 1.16307 12.0017 1.28125 11.4658 1.32727C12.0222 1.0641 12.4388 0.648338 12.6375 0.157984C12.1155 0.405262 11.5435 0.578658 10.9471 0.67048C10.6978 0.4583 10.3964 0.289267 10.0615 0.173915C9.72654 0.058563 9.36538 -0.00063662 9.00048 5.16279e-06C7.5241 5.16279e-06 6.33674 0.952851 6.33674 2.12214C6.33674 2.28634 6.36174 2.45054 6.40236 2.60852C4.19168 2.51646 2.22005 1.67557 0.909266 0.38811C0.670428 0.712918 0.545268 1.08275 0.546809 1.45913C0.546809 2.19553 1.01707 2.84486 1.73417 3.22675C1.31157 3.21349 0.898865 3.12101 0.529624 2.95681V2.98294C0.529624 4.01415 1.44514 4.86873 2.6653 5.06527C2.43621 5.11265 2.20053 5.13689 1.96383 5.13741C1.79041 5.13741 1.62637 5.12373 1.46076 5.10507C1.79822 5.94597 2.78092 6.55673 3.95109 6.57663C3.03557 7.1476 1.88884 7.48346 0.643673 7.48346C0.420262 7.48346 0.214037 7.47724 0 7.45733C1.18111 8.06064 2.5825 8.40894 4.0917 8.40894C8.99111 8.40894 11.672 5.17722 11.672 2.37217C11.672 2.28012 11.672 2.18807 11.6642 2.09602C12.1829 1.79374 12.6375 1.41932 13 0.998877Z" fill="white"/>
</svg>
